<svg xmlns="http://www.w3.org/2000/svg" viewBox="0 0 64 64">
  <defs>
    <linearGradient id="bg" x1="0%" y1="0%" x2="100%" y2="100%">
      <stop offset="0%" stop-color="#007AFF"/>
      <stop offset="100%" stop-color="#5E5CE6"/>
    </linearGradient>
  </defs>
  <rect width="64" height="64" rx="14" fill="url(#bg)"/>
  <path d="M30 14 C43 14, 53 23, 53 33 C53 38, 49 41, 45 41 L42 41 C39 41, 37 43, 37 46 C37 49, 38 50, 38 51 C38 53, 36 54, 33 54 C22 54, 13 44, 13 33 C13 22, 21 14, 30 14 Z" fill="white"/>
  <circle cx="23" cy="26" r="4" fill="#FF3B30"/>
  <circle cx="33" cy="22" r="4" fill="#FF9500"/>
  <circle cx="42" cy="28" r="4" fill="#34C759"/>
  <circle cx="25" cy="38" r="4" fill="#AF52DE"/>
</svg>
