<svg xmlns="http://www.w3.org/2000/svg" viewBox="0 0 64 64" width="64" height="64">
  <defs>
    <linearGradient id="ot" x1="0" y1="0" x2="1" y2="1">
      <stop offset="0" stop-color="#0a84ff"></stop>
      <stop offset="1" stop-color="#5856d6"></stop>
    </linearGradient>
  </defs>
  <rect width="64" height="64" rx="16" fill="url(#ot)"></rect>
  <g fill="#fff">
    <circle cx="38" cy="19" r="3.4"></circle>
    <circle cx="48" cy="29" r="3.4"></circle>
    <circle cx="25" cy="21" r="3.4"></circle>
    <circle cx="19" cy="34" r="3.4"></circle>
  </g>
  <path d="M32 11a21 21 0 0 0 0 42c2.4 0 4.3-1.9 4.3-4.3 0-1.1-.4-2-1.1-2.8-.6-.7-1-1.6-1-2.6 0-2.1 1.7-3.7 3.7-3.7H44a10.5 10.5 0 0 0 10.5-10.5C54.5 20.6 44.5 11 32 11z" fill="none" stroke="#fff" stroke-width="3.4"></path>
</svg>
